<svg viewBox="0 0 36 36" xmlns="http://www.w3.org/2000/svg">
    <style>.st0{fill:#2e2f5e}</style>
    <linearGradient id="SVGID_1_" x1="4.322" x2="24.268" y1="33.651" y2="-.503" gradientTransform="matrix(.82836 0 0 -.82836 .17262 37.046)" gradientUnits="userSpaceOnUse">
        <stop stop-color="#498a63" offset="0"/>
        <stop stop-color="#61b984" offset=".25"/>
    </linearGradient>
    <path d="m10.858 28.898c-5.4672-6.2955-1.8224-22.2 0.49702-22.2-4.4732-0.16567-12.094 2.8164-11.017 13.502 1.2425 9.9403 10.189 16.899 19.964 15.656 3.1478-0.41418 6.047-1.6567 8.5321-3.562-8.615 6.2127-14.413 0.66269-17.975-3.3963z" fill="url(#SVGID_1_)" stroke-width=".82836"/>
    <linearGradient id="SVGID_2_" x1="19.889" x2="40.524" y1="3.627" y2="36.697" gradientTransform="matrix(.82836 0 0 -.82836 .17262 37.046)" gradientUnits="userSpaceOnUse">
        <stop stop-color="#89356d" offset="0"/>
        <stop stop-color="#b94794" offset=".21"/>
    </linearGradient>
    <path d="m30.988 18.13c-4.556 9.1948-18.555 13.088-20.129 10.686 2.7336 4.059 9.5262 9.609 18.058 3.3134 7.7866-6.047 9.1948-17.396 3.1478-25.265-1.9052-2.4851-4.4732-4.3903-7.3724-5.6329 9.6918 4.3903 8.6978 12.094 6.2955 16.899z" fill="url(#SVGID_2_)" stroke-width=".82836"/>
    <linearGradient id="SVGID_3_" x1="3.242" x2="37.689" y1="35.782" y2="23.384" gradientTransform="matrix(.82836 0 0 -.82836 .17262 37.046)" gradientUnits="userSpaceOnUse">
        <stop stop-color="#f59c1c" offset=".6"/>
        <stop stop-color="#c7702b" offset="1"/>
    </linearGradient>
    <path d="m11.356 6.6981c9.8575-1.0769 21.04 9.112 19.632 11.514 2.7336-4.8045 3.3963-12.508-6.2127-16.899-9.1948-3.7276-19.632 0.74553-23.277 10.023-1.1597 2.8993-1.5739 6.047-1.1597 9.112-0.66269-10.603 7.3724-13.419 11.017-13.751z" fill="url(#SVGID_3_)" stroke-width=".82836"/>
</svg>
